<svg width="871" height="96" viewBox="0 0 871 96" fill="none" xmlns="http://www.w3.org/2000/svg">
<mask id="path-1-outside-1_457_354" maskUnits="userSpaceOnUse" x="-4.14307" y="-4.91309" width="880" height="106" fill="black">
<rect fill="white" x="-4.14307" y="-4.91309" width="880" height="106"/>
<path d="M36.7886 95.3494V92.0869H27.0012V88.8245H20.4317V85.562H17.1692V82.2996H13.9067V79.0371H10.6443V75.7746H7.38184V69.2051H4.11939V59.4177H0.856934V39.7983H4.11939V30.0109H7.38184V23.4413H10.6443V16.9164H13.9067V13.654H17.1692V10.3915H20.4317V7.12906H27.0012V3.86661H40.0511V0.559464H62.9329V3.86661H82.5523V20.1789H79.2899V33.2734H69.5025V30.0109H49.8831V33.2734H43.3135V36.5358H40.0511V39.7983H36.7886V46.3232H33.5262V62.6801H36.7886V65.9426H53.1456V62.6801H59.6705V59.4177H62.9329V56.1552H66.1954V52.8928H69.5025V49.6303H72.765V62.6801H76.0274V75.7746H79.2899V88.8245H76.0274V92.0869H62.9329V95.3494H36.7886ZM138.148 65.9426V62.6801H144.673V59.4177H147.935V56.1552H151.198V49.6303H154.505V33.2734H151.198V30.0109H134.886V33.2734H128.316V36.5358H125.054V39.7983H121.791V46.3232H118.529V62.6801H121.791V65.9426H138.148ZM125.054 95.3494V92.0869H112.004V88.8245H105.434V85.562H102.172V82.2996H98.9093V79.0371H95.6468V75.7746H92.3844V69.2051H89.1219V59.4177H85.8595V39.7983H89.1219V30.0109H92.3844V23.4413H95.6468V20.1789H98.9093V13.654H102.172V10.3915H105.434V7.12906H112.004V3.86661H125.054V0.559464H147.935V3.86661H161.03V7.12906H167.555V10.3915H170.817V13.654H174.08V16.9164H177.387V23.4413H180.649V30.0109H183.912V39.7983H187.174V59.4177H183.912V69.2051H180.649V75.7746H177.387V79.0371H174.08V82.2996H170.817V85.562H167.555V88.8245H161.03V92.0869H147.935V95.3494H125.054ZM190.437 92.0869V3.86661H223.106V10.3915H226.368V16.9164H229.631V20.1789H232.893V26.7485H236.2V33.2734H239.463V36.5358H242.725V43.0607H245.988V3.86661H275.395V92.0869H242.725V85.562H239.463V79.0371H236.2V75.7746H232.893V69.2051H229.631V62.6801H226.368V59.4177H223.106V92.0869H190.437ZM304.801 92.0869V30.0109H278.657V3.86661H366.877V30.0109H340.733V92.0869H304.801ZM425.736 52.8928V49.6303H422.473V36.5358H419.211V23.4413H412.641V36.5358H409.379V49.6303H406.116V52.8928H425.736ZM370.185 92.0869V85.562H373.447V75.7746H376.709V62.6801H379.972V52.8928H383.234V43.0607H386.497V33.2734H389.759V20.1789H393.066V10.3915H396.329V3.86661H435.523V10.3915H438.83V20.1789H442.093V33.2734H445.355V43.0607H448.617V52.8928H451.88V62.6801H455.142V75.7746H458.405V85.562H461.712V92.0869H428.998V79.0371H402.854V92.0869H370.185ZM500.951 95.3494V92.0869H491.163V88.8245H484.594V85.562H481.331V82.2996H478.069V79.0371H474.806V75.7746H471.544V69.2051H468.282V59.4177H465.019V39.7983H468.282V30.0109H471.544V23.4413H474.806V16.9164H478.069V13.654H481.331V10.3915H484.594V7.12906H491.163V3.86661H504.213V0.559464H527.095V3.86661H546.715V20.1789H543.452V33.2734H533.665V30.0109H514.045V33.2734H507.476V36.5358H504.213V39.7983H500.951V46.3232H497.688V62.6801H500.951V65.9426H517.308V62.6801H523.833V59.4177H527.095V56.1552H530.358V52.8928H533.665V49.6303H536.927V62.6801H540.19V75.7746H543.452V88.8245H540.19V92.0869H527.095V95.3494H500.951ZM576.166 92.0869V30.0109H550.022V3.86661H638.242V30.0109H612.098V92.0869H576.166ZM719.937 92.0869V88.8245H716.675V85.562H713.412V82.2996H710.15V79.0371H706.888V75.7746H703.625V69.2051H700.363V3.86661H736.294V72.5122H742.819V69.2051H746.126V65.9426H749.389V62.6801H752.651V56.1552H755.914V3.86661H788.583V69.2051H785.32V75.7746H782.058V79.0371H778.796V82.2996H775.533V85.562H772.271V88.8245H769.008V92.0869H719.937ZM804.94 95.3494V92.0869H795.153V88.8245H791.89V79.0371H795.153V69.2051H831.084V62.6801H808.202V59.4177H801.677V56.1552H798.415V52.8928H795.153V49.6303H791.89V43.0607H788.628V26.7485H791.89V20.1789H795.153V16.9164H798.415V13.654H801.677V10.3915H804.94V7.12906H814.772V3.86661H850.704V7.12906H860.536V10.3915H863.798V20.1789H860.536V26.7485H857.229V30.0109H827.822V39.7983H847.441V43.0607H857.229V46.3232H860.536V49.6303H863.798V52.8928H867.061V59.4177H870.323V75.7746H867.061V82.2996H863.798V85.562H860.536V88.8245H857.229V92.0869H847.441V95.3494H804.94Z"/>
</mask>
<path d="M36.7886 95.3494V92.0869H27.0012V88.8245H20.4317V85.562H17.1692V82.2996H13.9067V79.0371H10.6443V75.7746H7.38184V69.2051H4.11939V59.4177H0.856934V39.7983H4.11939V30.0109H7.38184V23.4413H10.6443V16.9164H13.9067V13.654H17.1692V10.3915H20.4317V7.12906H27.0012V3.86661H40.0511V0.559464H62.9329V3.86661H82.5523V20.1789H79.2899V33.2734H69.5025V30.0109H49.8831V33.2734H43.3135V36.5358H40.0511V39.7983H36.7886V46.3232H33.5262V62.6801H36.7886V65.9426H53.1456V62.6801H59.6705V59.4177H62.9329V56.1552H66.1954V52.8928H69.5025V49.6303H72.765V62.6801H76.0274V75.7746H79.2899V88.8245H76.0274V92.0869H62.9329V95.3494H36.7886ZM138.148 65.9426V62.6801H144.673V59.4177H147.935V56.1552H151.198V49.6303H154.505V33.2734H151.198V30.0109H134.886V33.2734H128.316V36.5358H125.054V39.7983H121.791V46.3232H118.529V62.6801H121.791V65.9426H138.148ZM125.054 95.3494V92.0869H112.004V88.8245H105.434V85.562H102.172V82.2996H98.9093V79.0371H95.6468V75.7746H92.3844V69.2051H89.1219V59.4177H85.8595V39.7983H89.1219V30.0109H92.3844V23.4413H95.6468V20.1789H98.9093V13.654H102.172V10.3915H105.434V7.12906H112.004V3.86661H125.054V0.559464H147.935V3.86661H161.03V7.12906H167.555V10.3915H170.817V13.654H174.08V16.9164H177.387V23.4413H180.649V30.0109H183.912V39.7983H187.174V59.4177H183.912V69.2051H180.649V75.7746H177.387V79.0371H174.08V82.2996H170.817V85.562H167.555V88.8245H161.03V92.0869H147.935V95.3494H125.054ZM190.437 92.0869V3.86661H223.106V10.3915H226.368V16.9164H229.631V20.1789H232.893V26.7485H236.2V33.2734H239.463V36.5358H242.725V43.0607H245.988V3.86661H275.395V92.0869H242.725V85.562H239.463V79.0371H236.2V75.7746H232.893V69.2051H229.631V62.6801H226.368V59.4177H223.106V92.0869H190.437ZM304.801 92.0869V30.0109H278.657V3.86661H366.877V30.0109H340.733V92.0869H304.801ZM425.736 52.8928V49.6303H422.473V36.5358H419.211V23.4413H412.641V36.5358H409.379V49.6303H406.116V52.8928H425.736ZM370.185 92.0869V85.562H373.447V75.7746H376.709V62.6801H379.972V52.8928H383.234V43.0607H386.497V33.2734H389.759V20.1789H393.066V10.3915H396.329V3.86661H435.523V10.3915H438.83V20.1789H442.093V33.2734H445.355V43.0607H448.617V52.8928H451.88V62.6801H455.142V75.7746H458.405V85.562H461.712V92.0869H428.998V79.0371H402.854V92.0869H370.185ZM500.951 95.3494V92.0869H491.163V88.8245H484.594V85.562H481.331V82.2996H478.069V79.0371H474.806V75.7746H471.544V69.2051H468.282V59.4177H465.019V39.7983H468.282V30.0109H471.544V23.4413H474.806V16.9164H478.069V13.654H481.331V10.3915H484.594V7.12906H491.163V3.86661H504.213V0.559464H527.095V3.86661H546.715V20.1789H543.452V33.2734H533.665V30.0109H514.045V33.2734H507.476V36.5358H504.213V39.7983H500.951V46.3232H497.688V62.6801H500.951V65.9426H517.308V62.6801H523.833V59.4177H527.095V56.1552H530.358V52.8928H533.665V49.6303H536.927V62.6801H540.19V75.7746H543.452V88.8245H540.19V92.0869H527.095V95.3494H500.951ZM576.166 92.0869V30.0109H550.022V3.86661H638.242V30.0109H612.098V92.0869H576.166ZM719.937 92.0869V88.8245H716.675V85.562H713.412V82.2996H710.15V79.0371H706.888V75.7746H703.625V69.2051H700.363V3.86661H736.294V72.5122H742.819V69.2051H746.126V65.9426H749.389V62.6801H752.651V56.1552H755.914V3.86661H788.583V69.2051H785.32V75.7746H782.058V79.0371H778.796V82.2996H775.533V85.562H772.271V88.8245H769.008V92.0869H719.937ZM804.94 95.3494V92.0869H795.153V88.8245H791.89V79.0371H795.153V69.2051H831.084V62.6801H808.202V59.4177H801.677V56.1552H798.415V52.8928H795.153V49.6303H791.89V43.0607H788.628V26.7485H791.89V20.1789H795.153V16.9164H798.415V13.654H801.677V10.3915H804.94V7.12906H814.772V3.86661H850.704V7.12906H860.536V10.3915H863.798V20.1789H860.536V26.7485H857.229V30.0109H827.822V39.7983H847.441V43.0607H857.229V46.3232H860.536V49.6303H863.798V52.8928H867.061V59.4177H870.323V75.7746H867.061V82.2996H863.798V85.562H860.536V88.8245H857.229V92.0869H847.441V95.3494H804.94Z" fill="url(#paint0_linear_457_354)"/>
<path d="M36.7886 95.3494H31.9714V100.167H36.7886V95.3494ZM36.7886 92.0869H41.6058V87.2697H36.7886V92.0869ZM27.0012 92.0869H22.184V96.9041H27.0012V92.0869ZM27.0012 88.8245H31.8185V84.0072H27.0012V88.8245ZM20.4317 88.8245H15.6144V93.6417H20.4317V88.8245ZM20.4317 85.562H25.2489V80.7448H20.4317V85.562ZM17.1692 85.562H12.352V90.3792H17.1692V85.562ZM17.1692 82.2996H21.9864V77.4823H17.1692V82.2996ZM13.9067 82.2996H9.08951V87.1168H13.9067V82.2996ZM13.9067 79.0371H18.724V74.2199H13.9067V79.0371ZM10.6443 79.0371H5.82706V83.8543H10.6443V79.0371ZM10.6443 75.7747H15.4615V70.9574H10.6443V75.7747ZM7.38184 75.7747H2.56461V80.5919H7.38184V75.7747ZM7.38184 69.205H12.1991V64.3878H7.38184V69.205ZM4.11939 69.205H-0.697847V74.0223H4.11939V69.205ZM4.11939 59.4177H8.93662V54.6005H4.11939V59.4177ZM0.856934 59.4177H-3.9603V64.2349H0.856934V59.4177ZM0.856934 39.7983V34.981H-3.9603V39.7983H0.856934ZM4.11939 39.7983V44.6155H8.93662V39.7983H4.11939ZM4.11939 30.0109V25.1937H-0.697847V30.0109H4.11939ZM7.38184 30.0109V34.8282H12.1991V30.0109H7.38184ZM7.38184 23.4413V18.6241H2.56461V23.4413H7.38184ZM10.6443 23.4413V28.2586H15.4615V23.4413H10.6443ZM10.6443 16.9164V12.0992H5.82706V16.9164H10.6443ZM13.9067 16.9164V21.7337H18.724V16.9164H13.9067ZM13.9067 13.654V8.83673H9.08951V13.654H13.9067ZM17.1692 13.654V18.4712H21.9864V13.654H17.1692ZM17.1692 10.3915V5.57428H12.352V10.3915H17.1692ZM20.4317 10.3915V15.2087H25.2489V10.3915H20.4317ZM20.4317 7.12906V2.31183H15.6144V7.12906H20.4317ZM27.0012 7.12906V11.9463H31.8185V7.12906H27.0012ZM27.0012 3.86661V-0.950626H22.184V3.86661H27.0012ZM40.0511 3.86661V8.68384H44.8683V3.86661H40.0511ZM40.0511 0.559464V-4.25777H35.2338V0.559464H40.0511ZM62.9329 0.559464H67.7502V-4.25777H62.9329V0.559464ZM62.9329 3.86661H58.1157V8.68384H62.9329V3.86661ZM82.5523 3.86661H87.3696V-0.950626H82.5523V3.86661ZM82.5523 20.1789V24.9961H87.3696V20.1789H82.5523ZM79.2899 20.1789V15.3616H74.4726V20.1789H79.2899ZM79.2899 33.2734V38.0906H84.1071V33.2734H79.2899ZM69.5025 33.2734H64.6853V38.0906H69.5025V33.2734ZM69.5025 30.0109H74.3198V25.1937H69.5025V30.0109ZM49.8831 30.0109V25.1937H45.0659V30.0109H49.8831ZM49.8831 33.2734V38.0906H54.7003V33.2734H49.8831ZM43.3135 33.2734V28.4561H38.4963V33.2734H43.3135ZM43.3135 36.5358V41.3531H48.1307V36.5358H43.3135ZM40.0511 36.5358V31.7186H35.2338V36.5358H40.0511ZM40.0511 39.7983V44.6155H44.8683V39.7983H40.0511ZM36.7886 39.7983V34.981H31.9714V39.7983H36.7886ZM36.7886 46.3232V51.1404H41.6058V46.3232H36.7886ZM33.5262 46.3232V41.506H28.7089V46.3232H33.5262ZM33.5262 62.6801H28.7089V67.4974H33.5262V62.6801ZM36.7886 62.6801H41.6058V57.8629H36.7886V62.6801ZM36.7886 65.9426H31.9714V70.7598H36.7886V65.9426ZM53.1456 65.9426V70.7598H57.9628V65.9426H53.1456ZM53.1456 62.6801V57.8629H48.3283V62.6801H53.1456ZM59.6705 62.6801V67.4974H64.4877V62.6801H59.6705ZM59.6705 59.4177V54.6005H54.8532V59.4177H59.6705ZM62.9329 59.4177V64.2349H67.7502V59.4177H62.9329ZM62.9329 56.1552V51.338H58.1157V56.1552H62.9329ZM66.1954 56.1552V60.9725H71.0126V56.1552H66.1954ZM66.1954 52.8928V48.0756H61.3781V52.8928H66.1954ZM69.5025 52.8928V57.71H74.3198V52.8928H69.5025ZM69.5025 49.6303V44.8131H64.6853V49.6303H69.5025ZM72.765 49.6303H77.5822V44.8131H72.765V49.6303ZM72.765 62.6801H67.9477V67.4974H72.765V62.6801ZM76.0274 62.6801H80.8447V57.8629H76.0274V62.6801ZM76.0274 75.7747H71.2102V80.5919H76.0274V75.7747ZM79.2899 75.7747H84.1071V70.9574H79.2899V75.7747ZM79.2899 88.8245V93.6417H84.1071V88.8245H79.2899ZM76.0274 88.8245V84.0072H71.2102V88.8245H76.0274ZM76.0274 92.0869V96.9041H80.8447V92.0869H76.0274ZM62.9329 92.0869V87.2697H58.1157V92.0869H62.9329ZM62.9329 95.3494V100.167H67.7502V95.3494H62.9329ZM41.6058 95.3494V92.0869H31.9714V95.3494H41.6058ZM36.7886 87.2697H27.0012V96.9041H36.7886V87.2697ZM31.8185 92.0869V88.8245H22.184V92.0869H31.8185ZM27.0012 84.0072H20.4317V93.6417H27.0012V84.0072ZM25.2489 88.8245V85.562H15.6144V88.8245H25.2489ZM20.4317 80.7448H17.1692V90.3792H20.4317V80.7448ZM21.9864 85.562V82.2996H12.352V85.562H21.9864ZM17.1692 77.4823H13.9067V87.1168H17.1692V77.4823ZM18.724 82.2996V79.0371H9.08951V82.2996H18.724ZM13.9067 74.2199H10.6443V83.8543H13.9067V74.2199ZM15.4615 79.0371V75.7747H5.82706V79.0371H15.4615ZM10.6443 70.9574H7.38184V80.5919H10.6443V70.9574ZM12.1991 75.7747V69.205H2.56461V75.7747H12.1991ZM7.38184 64.3878H4.11939V74.0223H7.38184V64.3878ZM8.93662 69.205V59.4177H-0.697847V69.205H8.93662ZM4.11939 54.6005H0.856934V64.2349H4.11939V54.6005ZM5.67417 59.4177V39.7983H-3.9603V59.4177H5.67417ZM0.856934 44.6155H4.11939V34.981H0.856934V44.6155ZM8.93662 39.7983V30.0109H-0.697847V39.7983H8.93662ZM4.11939 34.8282H7.38184V25.1937H4.11939V34.8282ZM12.1991 30.0109V23.4413H2.56461V30.0109H12.1991ZM7.38184 28.2586H10.6443V18.6241H7.38184V28.2586ZM15.4615 23.4413V16.9164H5.82706V23.4413H15.4615ZM10.6443 21.7337H13.9067V12.0992H10.6443V21.7337ZM18.724 16.9164V13.654H9.08951V16.9164H18.724ZM13.9067 18.4712H17.1692V8.83673H13.9067V18.4712ZM21.9864 13.654V10.3915H12.352V13.654H21.9864ZM17.1692 15.2087H20.4317V5.57428H17.1692V15.2087ZM25.2489 10.3915V7.12906H15.6144V10.3915H25.2489ZM20.4317 11.9463H27.0012V2.31183H20.4317V11.9463ZM31.8185 7.12906V3.86661H22.184V7.12906H31.8185ZM27.0012 8.68384H40.0511V-0.950626H27.0012V8.68384ZM44.8683 3.86661V0.559464H35.2338V3.86661H44.8683ZM40.0511 5.3767H62.9329V-4.25777H40.0511V5.3767ZM58.1157 0.559464V3.86661H67.7502V0.559464H58.1157ZM62.9329 8.68384H82.5523V-0.950626H62.9329V8.68384ZM77.7351 3.86661V20.1789H87.3696V3.86661H77.7351ZM82.5523 15.3616H79.2899V24.9961H82.5523V15.3616ZM74.4726 20.1789V33.2734H84.1071V20.1789H74.4726ZM79.2899 28.4561H69.5025V38.0906H79.2899V28.4561ZM74.3198 33.2734V30.0109H64.6853V33.2734H74.3198ZM69.5025 25.1937H49.8831V34.8282H69.5025V25.1937ZM45.0659 30.0109V33.2734H54.7003V30.0109H45.0659ZM49.8831 28.4561H43.3135V38.0906H49.8831V28.4561ZM38.4963 33.2734V36.5358H48.1307V33.2734H38.4963ZM43.3135 31.7186H40.0511V41.3531H43.3135V31.7186ZM35.2338 36.5358V39.7983H44.8683V36.5358H35.2338ZM40.0511 34.981H36.7886V44.6155H40.0511V34.981ZM31.9714 39.7983V46.3232H41.6058V39.7983H31.9714ZM36.7886 41.506H33.5262V51.1404H36.7886V41.506ZM28.7089 46.3232V62.6801H38.3434V46.3232H28.7089ZM33.5262 67.4974H36.7886V57.8629H33.5262V67.4974ZM31.9714 62.6801V65.9426H41.6058V62.6801H31.9714ZM36.7886 70.7598H53.1456V61.1254H36.7886V70.7598ZM57.9628 65.9426V62.6801H48.3283V65.9426H57.9628ZM53.1456 67.4974H59.6705V57.8629H53.1456V67.4974ZM64.4877 62.6801V59.4177H54.8532V62.6801H64.4877ZM59.6705 64.2349H62.9329V54.6005H59.6705V64.2349ZM67.7502 59.4177V56.1552H58.1157V59.4177H67.7502ZM62.9329 60.9725H66.1954V51.338H62.9329V60.9725ZM71.0126 56.1552V52.8928H61.3781V56.1552H71.0126ZM66.1954 57.71H69.5025V48.0756H66.1954V57.71ZM74.3198 52.8928V49.6303H64.6853V52.8928H74.3198ZM69.5025 54.4476H72.765V44.8131H69.5025V54.4476ZM67.9477 49.6303V62.6801H77.5822V49.6303H67.9477ZM72.765 67.4974H76.0274V57.8629H72.765V67.4974ZM71.2102 62.6801V75.7747H80.8447V62.6801H71.2102ZM76.0274 80.5919H79.2899V70.9574H76.0274V80.5919ZM74.4726 75.7747V88.8245H84.1071V75.7747H74.4726ZM79.2899 84.0072H76.0274V93.6417H79.2899V84.0072ZM71.2102 88.8245V92.0869H80.8447V88.8245H71.2102ZM76.0274 87.2697H62.9329V96.9041H76.0274V87.2697ZM58.1157 92.0869V95.3494H67.7502V92.0869H58.1157ZM62.9329 90.5321H36.7886V100.167H62.9329V90.5321ZM138.148 65.9426V70.7598H142.965V65.9426H138.148ZM138.148 62.6801V57.8629H133.331V62.6801H138.148ZM144.673 62.6801V67.4974H149.49V62.6801H144.673ZM144.673 59.4177V54.6005H139.856V59.4177H144.673ZM147.935 59.4177V64.2349H152.753V59.4177H147.935ZM147.935 56.1552V51.338H143.118V56.1552H147.935ZM151.198 56.1552V60.9725H156.015V56.1552H151.198ZM151.198 49.6303V44.8131H146.381V49.6303H151.198ZM154.505 49.6303V54.4476H159.322V49.6303H154.505ZM154.505 33.2734H159.322V28.4561H154.505V33.2734ZM151.198 33.2734H146.381V38.0906H151.198V33.2734ZM151.198 30.0109H156.015V25.1937H151.198V30.0109ZM134.886 30.0109V25.1937H130.068V30.0109H134.886ZM134.886 33.2734V38.0906H139.703V33.2734H134.886ZM128.316 33.2734V28.4561H123.499V33.2734H128.316ZM128.316 36.5358V41.3531H133.133V36.5358H128.316ZM125.054 36.5358V31.7186H120.236V36.5358H125.054ZM125.054 39.7983V44.6155H129.871V39.7983H125.054ZM121.791 39.7983V34.981H116.974V39.7983H121.791ZM121.791 46.3232V51.1404H126.608V46.3232H121.791ZM118.529 46.3232V41.506H113.711V46.3232H118.529ZM118.529 62.6801H113.711V67.4974H118.529V62.6801ZM121.791 62.6801H126.608V57.8629H121.791V62.6801ZM121.791 65.9426H116.974V70.7598H121.791V65.9426ZM125.054 95.3494H120.236V100.167H125.054V95.3494ZM125.054 92.0869H129.871V87.2697H125.054V92.0869ZM112.004 92.0869H107.187V96.9041H112.004V92.0869ZM112.004 88.8245H116.821V84.0072H112.004V88.8245ZM105.434 88.8245H100.617V93.6417H105.434V88.8245ZM105.434 85.562H110.251V80.7448H105.434V85.562ZM102.172 85.562H97.3545V90.3792H102.172V85.562ZM102.172 82.2996H106.989V77.4823H102.172V82.2996ZM98.9093 82.2996H94.0921V87.1168H98.9093V82.2996ZM98.9093 79.0371H103.727V74.2199H98.9093V79.0371ZM95.6468 79.0371H90.8296V83.8543H95.6468V79.0371ZM95.6468 75.7747H100.464V70.9574H95.6468V75.7747ZM92.3844 75.7747H87.5672V80.5919H92.3844V75.7747ZM92.3844 69.205H97.2016V64.3878H92.3844V69.205ZM89.1219 69.205H84.3047V74.0223H89.1219V69.205ZM89.1219 59.4177H93.9392V54.6005H89.1219V59.4177ZM85.8595 59.4177H81.0423V64.2349H85.8595V59.4177ZM85.8595 39.7983V34.981H81.0423V39.7983H85.8595ZM89.1219 39.7983V44.6155H93.9392V39.7983H89.1219ZM89.1219 30.0109V25.1937H84.3047V30.0109H89.1219ZM92.3844 30.0109V34.8282H97.2016V30.0109H92.3844ZM92.3844 23.4413V18.6241H87.5672V23.4413H92.3844ZM95.6468 23.4413V28.2586H100.464V23.4413H95.6468ZM95.6468 20.1789V15.3616H90.8296V20.1789H95.6468ZM98.9093 20.1789V24.9961H103.727V20.1789H98.9093ZM98.9093 13.654V8.83673H94.0921V13.654H98.9093ZM102.172 13.654V18.4712H106.989V13.654H102.172ZM102.172 10.3915V5.57428H97.3545V10.3915H102.172ZM105.434 10.3915V15.2087H110.251V10.3915H105.434ZM105.434 7.12906V2.31183H100.617V7.12906H105.434ZM112.004 7.12906V11.9463H116.821V7.12906H112.004ZM112.004 3.86661V-0.950626H107.187V3.86661H112.004ZM125.054 3.86661V8.68384H129.871V3.86661H125.054ZM125.054 0.559464V-4.25777H120.236V0.559464H125.054ZM147.935 0.559464H152.753V-4.25777H147.935V0.559464ZM147.935 3.86661H143.118V8.68384H147.935V3.86661ZM161.03 3.86661H165.847V-0.950626H161.03V3.86661ZM161.03 7.12906H156.213V11.9463H161.03V7.12906ZM167.555 7.12906H172.372V2.31183H167.555V7.12906ZM167.555 10.3915H162.738V15.2087H167.555V10.3915ZM170.817 10.3915H175.635V5.57428H170.817V10.3915ZM170.817 13.654H166V18.4712H170.817V13.654ZM174.08 13.654H178.897V8.83673H174.08V13.654ZM174.08 16.9164H169.263V21.7337H174.08V16.9164ZM177.387 16.9164H182.204V12.0992H177.387V16.9164ZM177.387 23.4413H172.57V28.2586H177.387V23.4413ZM180.649 23.4413H185.467V18.6241H180.649V23.4413ZM180.649 30.0109H175.832V34.8282H180.649V30.0109ZM183.912 30.0109H188.729V25.1937H183.912V30.0109ZM183.912 39.7983H179.095V44.6155H183.912V39.7983ZM187.174 39.7983H191.992V34.981H187.174V39.7983ZM187.174 59.4177V64.2349H191.992V59.4177H187.174ZM183.912 59.4177V54.6005H179.095V59.4177H183.912ZM183.912 69.205V74.0223H188.729V69.205H183.912ZM180.649 69.205V64.3878H175.832V69.205H180.649ZM180.649 75.7747V80.5919H185.467V75.7747H180.649ZM177.387 75.7747V70.9574H172.57V75.7747H177.387ZM177.387 79.0371V83.8543H182.204V79.0371H177.387ZM174.08 79.0371V74.2199H169.263V79.0371H174.08ZM174.08 82.2996V87.1168H178.897V82.2996H174.08ZM170.817 82.2996V77.4823H166V82.2996H170.817ZM170.817 85.562V90.3792H175.635V85.562H170.817ZM167.555 85.562V80.7448H162.738V85.562H167.555ZM167.555 88.8245V93.6417H172.372V88.8245H167.555ZM161.03 88.8245V84.0072H156.213V88.8245H161.03ZM161.03 92.0869V96.9041H165.847V92.0869H161.03ZM147.935 92.0869V87.2697H143.118V92.0869H147.935ZM147.935 95.3494V100.167H152.753V95.3494H147.935ZM142.965 65.9426V62.6801H133.331V65.9426H142.965ZM138.148 67.4974H144.673V57.8629H138.148V67.4974ZM149.49 62.6801V59.4177H139.856V62.6801H149.49ZM144.673 64.2349H147.935V54.6005H144.673V64.2349ZM152.753 59.4177V56.1552H143.118V59.4177H152.753ZM147.935 60.9725H151.198V51.338H147.935V60.9725ZM156.015 56.1552V49.6303H146.381V56.1552H156.015ZM151.198 54.4476H154.505V44.8131H151.198V54.4476ZM159.322 49.6303V33.2734H149.688V49.6303H159.322ZM154.505 28.4561H151.198V38.0906H154.505V28.4561ZM156.015 33.2734V30.0109H146.381V33.2734H156.015ZM151.198 25.1937H134.886V34.8282H151.198V25.1937ZM130.068 30.0109V33.2734H139.703V30.0109H130.068ZM134.886 28.4561H128.316V38.0906H134.886V28.4561ZM123.499 33.2734V36.5358H133.133V33.2734H123.499ZM128.316 31.7186H125.054V41.3531H128.316V31.7186ZM120.236 36.5358V39.7983H129.871V36.5358H120.236ZM125.054 34.981H121.791V44.6155H125.054V34.981ZM116.974 39.7983V46.3232H126.608V39.7983H116.974ZM121.791 41.506H118.529V51.1404H121.791V41.506ZM113.711 46.3232V62.6801H123.346V46.3232H113.711ZM118.529 67.4974H121.791V57.8629H118.529V67.4974ZM116.974 62.6801V65.9426H126.608V62.6801H116.974ZM121.791 70.7598H138.148V61.1254H121.791V70.7598ZM129.871 95.3494V92.0869H120.236V95.3494H129.871ZM125.054 87.2697H112.004V96.9041H125.054V87.2697ZM116.821 92.0869V88.8245H107.187V92.0869H116.821ZM112.004 84.0072H105.434V93.6417H112.004V84.0072ZM110.251 88.8245V85.562H100.617V88.8245H110.251ZM105.434 80.7448H102.172V90.3792H105.434V80.7448ZM106.989 85.562V82.2996H97.3545V85.562H106.989ZM102.172 77.4823H98.9093V87.1168H102.172V77.4823ZM103.727 82.2996V79.0371H94.0921V82.2996H103.727ZM98.9093 74.2199H95.6468V83.8543H98.9093V74.2199ZM100.464 79.0371V75.7747H90.8296V79.0371H100.464ZM95.6468 70.9574H92.3844V80.5919H95.6468V70.9574ZM97.2016 75.7747V69.205H87.5672V75.7747H97.2016ZM92.3844 64.3878H89.1219V74.0223H92.3844V64.3878ZM93.9392 69.205V59.4177H84.3047V69.205H93.9392ZM89.1219 54.6005H85.8595V64.2349H89.1219V54.6005ZM90.6767 59.4177V39.7983H81.0423V59.4177H90.6767ZM85.8595 44.6155H89.1219V34.981H85.8595V44.6155ZM93.9392 39.7983V30.0109H84.3047V39.7983H93.9392ZM89.1219 34.8282H92.3844V25.1937H89.1219V34.8282ZM97.2016 30.0109V23.4413H87.5672V30.0109H97.2016ZM92.3844 28.2586H95.6468V18.6241H92.3844V28.2586ZM100.464 23.4413V20.1789H90.8296V23.4413H100.464ZM95.6468 24.9961H98.9093V15.3616H95.6468V24.9961ZM103.727 20.1789V13.654H94.0921V20.1789H103.727ZM98.9093 18.4712H102.172V8.83673H98.9093V18.4712ZM106.989 13.654V10.3915H97.3545V13.654H106.989ZM102.172 15.2087H105.434V5.57428H102.172V15.2087ZM110.251 10.3915V7.12906H100.617V10.3915H110.251ZM105.434 11.9463H112.004V2.31183H105.434V11.9463ZM116.821 7.12906V3.86661H107.187V7.12906H116.821ZM112.004 8.68384H125.054V-0.950626H112.004V8.68384ZM129.871 3.86661V0.559464H120.236V3.86661H129.871ZM125.054 5.3767H147.935V-4.25777H125.054V5.3767ZM143.118 0.559464V3.86661H152.753V0.559464H143.118ZM147.935 8.68384H161.03V-0.950626H147.935V8.68384ZM156.213 3.86661V7.12906H165.847V3.86661H156.213ZM161.03 11.9463H167.555V2.31183H161.03V11.9463ZM162.738 7.12906V10.3915H172.372V7.12906H162.738ZM167.555 15.2087H170.817V5.57428H167.555V15.2087ZM166 10.3915V13.654H175.635V10.3915H166ZM170.817 18.4712H174.08V8.83673H170.817V18.4712ZM169.263 13.654V16.9164H178.897V13.654H169.263ZM174.08 21.7337H177.387V12.0992H174.08V21.7337ZM172.57 16.9164V23.4413H182.204V16.9164H172.57ZM177.387 28.2586H180.649V18.6241H177.387V28.2586ZM175.832 23.4413V30.0109H185.467V23.4413H175.832ZM180.649 34.8282H183.912V25.1937H180.649V34.8282ZM179.095 30.0109V39.7983H188.729V30.0109H179.095ZM183.912 44.6155H187.174V34.981H183.912V44.6155ZM182.357 39.7983V59.4177H191.992V39.7983H182.357ZM187.174 54.6005H183.912V64.2349H187.174V54.6005ZM179.095 59.4177V69.205H188.729V59.4177H179.095ZM183.912 64.3878H180.649V74.0223H183.912V64.3878ZM175.832 69.205V75.7747H185.467V69.205H175.832ZM180.649 70.9574H177.387V80.5919H180.649V70.9574ZM172.57 75.7747V79.0371H182.204V75.7747H172.57ZM177.387 74.2199H174.08V83.8543H177.387V74.2199ZM169.263 79.0371V82.2996H178.897V79.0371H169.263ZM174.08 77.4823H170.817V87.1168H174.08V77.4823ZM166 82.2996V85.562H175.635V82.2996H166ZM170.817 80.7448H167.555V90.3792H170.817V80.7448ZM162.738 85.562V88.8245H172.372V85.562H162.738ZM167.555 84.0072H161.03V93.6417H167.555V84.0072ZM156.213 88.8245V92.0869H165.847V88.8245H156.213ZM161.03 87.2697H147.935V96.9041H161.03V87.2697ZM143.118 92.0869V95.3494H152.753V92.0869H143.118ZM147.935 90.5321H125.054V100.167H147.935V90.5321ZM190.437 92.0869H185.62V96.9041H190.437V92.0869ZM190.437 3.86661V-0.950626H185.62V3.86661H190.437ZM223.106 3.86661H227.923V-0.950626H223.106V3.86661ZM223.106 10.3915H218.289V15.2087H223.106V10.3915ZM226.368 10.3915H231.186V5.57428H226.368V10.3915ZM226.368 16.9164H221.551V21.7337H226.368V16.9164ZM229.631 16.9164H234.448V12.0992H229.631V16.9164ZM229.631 20.1789H224.814V24.9961H229.631V20.1789ZM232.893 20.1789H237.711V15.3616H232.893V20.1789ZM232.893 26.7485H228.076V31.5657H232.893V26.7485ZM236.2 26.7485H241.018V21.9312H236.2V26.7485ZM236.2 33.2734H231.383V38.0906H236.2V33.2734ZM239.463 33.2734H244.28V28.4561H239.463V33.2734ZM239.463 36.5358H234.646V41.3531H239.463V36.5358ZM242.725 36.5358H247.543V31.7186H242.725V36.5358ZM242.725 43.0607H237.908V47.878H242.725V43.0607ZM245.988 43.0607V47.878H250.805V43.0607H245.988ZM245.988 3.86661V-0.950626H241.171V3.86661H245.988ZM275.395 3.86661H280.212V-0.950626H275.395V3.86661ZM275.395 92.0869V96.9041H280.212V92.0869H275.395ZM242.725 92.0869H237.908V96.9041H242.725V92.0869ZM242.725 85.562H247.543V80.7448H242.725V85.562ZM239.463 85.562H234.646V90.3792H239.463V85.562ZM239.463 79.0371H244.28V74.2199H239.463V79.0371ZM236.2 79.0371H231.383V83.8543H236.2V79.0371ZM236.2 75.7747H241.018V70.9574H236.2V75.7747ZM232.893 75.7747H228.076V80.5919H232.893V75.7747ZM232.893 69.205H237.711V64.3878H232.893V69.205ZM229.631 69.205H224.814V74.0223H229.631V69.205ZM229.631 62.6801H234.448V57.8629H229.631V62.6801ZM226.368 62.6801H221.551V67.4974H226.368V62.6801ZM226.368 59.4177H231.186V54.6005H226.368V59.4177ZM223.106 59.4177V54.6005H218.289V59.4177H223.106ZM223.106 92.0869V96.9041H227.923V92.0869H223.106ZM195.254 92.0869V3.86661H185.62V92.0869H195.254ZM190.437 8.68384H223.106V-0.950626H190.437V8.68384ZM218.289 3.86661V10.3915H227.923V3.86661H218.289ZM223.106 15.2087H226.368V5.57428H223.106V15.2087ZM221.551 10.3915V16.9164H231.186V10.3915H221.551ZM226.368 21.7337H229.631V12.0992H226.368V21.7337ZM224.814 16.9164V20.1789H234.448V16.9164H224.814ZM229.631 24.9961H232.893V15.3616H229.631V24.9961ZM228.076 20.1789V26.7485H237.711V20.1789H228.076ZM232.893 31.5657H236.2V21.9312H232.893V31.5657ZM231.383 26.7485V33.2734H241.018V26.7485H231.383ZM236.2 38.0906H239.463V28.4561H236.2V38.0906ZM234.646 33.2734V36.5358H244.28V33.2734H234.646ZM239.463 41.3531H242.725V31.7186H239.463V41.3531ZM237.908 36.5358V43.0607H247.543V36.5358H237.908ZM242.725 47.878H245.988V38.2435H242.725V47.878ZM250.805 43.0607V3.86661H241.171V43.0607H250.805ZM245.988 8.68384H275.395V-0.950626H245.988V8.68384ZM270.577 3.86661V92.0869H280.212V3.86661H270.577ZM275.395 87.2697H242.725V96.9041H275.395V87.2697ZM247.543 92.0869V85.562H237.908V92.0869H247.543ZM242.725 80.7448H239.463V90.3792H242.725V80.7448ZM244.28 85.562V79.0371H234.646V85.562H244.28ZM239.463 74.2199H236.2V83.8543H239.463V74.2199ZM241.018 79.0371V75.7747H231.383V79.0371H241.018ZM236.2 70.9574H232.893V80.5919H236.2V70.9574ZM237.711 75.7747V69.205H228.076V75.7747H237.711ZM232.893 64.3878H229.631V74.0223H232.893V64.3878ZM234.448 69.205V62.6801H224.814V69.205H234.448ZM229.631 57.8629H226.368V67.4974H229.631V57.8629ZM231.186 62.6801V59.4177H221.551V62.6801H231.186ZM226.368 54.6005H223.106V64.2349H226.368V54.6005ZM218.289 59.4177V92.0869H227.923V59.4177H218.289ZM223.106 87.2697H190.437V96.9041H223.106V87.2697ZM304.801 92.0869H299.984V96.9041H304.801V92.0869ZM304.801 30.0109H309.619V25.1937H304.801V30.0109ZM278.657 30.0109H273.84V34.8282H278.657V30.0109ZM278.657 3.86661V-0.950626H273.84V3.86661H278.657ZM366.877 3.86661H371.695V-0.950626H366.877V3.86661ZM366.877 30.0109V34.8282H371.695V30.0109H366.877ZM340.733 30.0109V25.1937H335.916V30.0109H340.733ZM340.733 92.0869V96.9041H345.55V92.0869H340.733ZM309.619 92.0869V30.0109H299.984V92.0869H309.619ZM304.801 25.1937H278.657V34.8282H304.801V25.1937ZM283.474 30.0109V3.86661H273.84V30.0109H283.474ZM278.657 8.68384H366.877V-0.950626H278.657V8.68384ZM362.06 3.86661V30.0109H371.695V3.86661H362.06ZM366.877 25.1937H340.733V34.8282H366.877V25.1937ZM335.916 30.0109V92.0869H345.55V30.0109H335.916ZM340.733 87.2697H304.801V96.9041H340.733V87.2697ZM425.736 52.8928V57.71H430.553V52.8928H425.736ZM425.736 49.6303H430.553V44.8131H425.736V49.6303ZM422.473 49.6303H417.656V54.4476H422.473V49.6303ZM422.473 36.5358H427.29V31.7186H422.473V36.5358ZM419.211 36.5358H414.393V41.3531H419.211V36.5358ZM419.211 23.4413H424.028V18.6241H419.211V23.4413ZM412.641 23.4413V18.6241H407.824V23.4413H412.641ZM412.641 36.5358V41.3531H417.458V36.5358H412.641ZM409.379 36.5358V31.7186H404.561V36.5358H409.379ZM409.379 49.6303V54.4476H414.196V49.6303H409.379ZM406.116 49.6303V44.8131H401.299V49.6303H406.116ZM406.116 52.8928H401.299V57.71H406.116V52.8928ZM370.185 92.0869H365.367V96.9041H370.185V92.0869ZM370.185 85.562V80.7448H365.367V85.562H370.185ZM373.447 85.562V90.3792H378.264V85.562H373.447ZM373.447 75.7747V70.9574H368.63V75.7747H373.447ZM376.709 75.7747V80.5919H381.527V75.7747H376.709ZM376.709 62.6801V57.8629H371.892V62.6801H376.709ZM379.972 62.6801V67.4974H384.789V62.6801H379.972ZM379.972 52.8928V48.0756H375.155V52.8928H379.972ZM383.234 52.8928V57.71H388.052V52.8928H383.234ZM383.234 43.0607V38.2435H378.417V43.0607H383.234ZM386.497 43.0607V47.878H391.314V43.0607H386.497ZM386.497 33.2734V28.4561H381.68V33.2734H386.497ZM389.759 33.2734V38.0906H394.576V33.2734H389.759ZM389.759 20.1789V15.3616H384.942V20.1789H389.759ZM393.066 20.1789V24.9961H397.884V20.1789H393.066ZM393.066 10.3915V5.57428H388.249V10.3915H393.066ZM396.329 10.3915V15.2087H401.146V10.3915H396.329ZM396.329 3.86661V-0.950626H391.512V3.86661H396.329ZM435.523 3.86661H440.34V-0.950626H435.523V3.86661ZM435.523 10.3915H430.706V15.2087H435.523V10.3915ZM438.83 10.3915H443.647V5.57428H438.83V10.3915ZM438.83 20.1789H434.013V24.9961H438.83V20.1789ZM442.093 20.1789H446.91V15.3616H442.093V20.1789ZM442.093 33.2734H437.275V38.0906H442.093V33.2734ZM445.355 33.2734H450.172V28.4561H445.355V33.2734ZM445.355 43.0607H440.538V47.878H445.355V43.0607ZM448.617 43.0607H453.435V38.2435H448.617V43.0607ZM448.617 52.8928H443.8V57.71H448.617V52.8928ZM451.88 52.8928H456.697V48.0756H451.88V52.8928ZM451.88 62.6801H447.063V67.4974H451.88V62.6801ZM455.142 62.6801H459.96V57.8629H455.142V62.6801ZM455.142 75.7747H450.325V80.5919H455.142V75.7747ZM458.405 75.7747H463.222V70.9574H458.405V75.7747ZM458.405 85.562H453.588V90.3792H458.405V85.562ZM461.712 85.562H466.529V80.7448H461.712V85.562ZM461.712 92.0869V96.9041H466.529V92.0869H461.712ZM428.998 92.0869H424.181V96.9041H428.998V92.0869ZM428.998 79.0371H433.815V74.2199H428.998V79.0371ZM402.854 79.0371V74.2199H398.036V79.0371H402.854ZM402.854 92.0869V96.9041H407.671V92.0869H402.854ZM430.553 52.8928V49.6303H420.918V52.8928H430.553ZM425.736 44.8131H422.473V54.4476H425.736V44.8131ZM427.29 49.6303V36.5358H417.656V49.6303H427.29ZM422.473 31.7186H419.211V41.3531H422.473V31.7186ZM424.028 36.5358V23.4413H414.393V36.5358H424.028ZM419.211 18.6241H412.641V28.2586H419.211V18.6241ZM407.824 23.4413V36.5358H417.458V23.4413H407.824ZM412.641 31.7186H409.379V41.3531H412.641V31.7186ZM404.561 36.5358V49.6303H414.196V36.5358H404.561ZM409.379 44.8131H406.116V54.4476H409.379V44.8131ZM401.299 49.6303V52.8928H410.933V49.6303H401.299ZM406.116 57.71H425.736V48.0756H406.116V57.71ZM375.002 92.0869V85.562H365.367V92.0869H375.002ZM370.185 90.3792H373.447V80.7448H370.185V90.3792ZM378.264 85.562V75.7747H368.63V85.562H378.264ZM373.447 80.5919H376.709V70.9574H373.447V80.5919ZM381.527 75.7747V62.6801H371.892V75.7747H381.527ZM376.709 67.4974H379.972V57.8629H376.709V67.4974ZM384.789 62.6801V52.8928H375.155V62.6801H384.789ZM379.972 57.71H383.234V48.0756H379.972V57.71ZM388.052 52.8928V43.0607H378.417V52.8928H388.052ZM383.234 47.878H386.497V38.2435H383.234V47.878ZM391.314 43.0607V33.2734H381.68V43.0607H391.314ZM386.497 38.0906H389.759V28.4561H386.497V38.0906ZM394.576 33.2734V20.1789H384.942V33.2734H394.576ZM389.759 24.9961H393.066V15.3616H389.759V24.9961ZM397.884 20.1789V10.3915H388.249V20.1789H397.884ZM393.066 15.2087H396.329V5.57428H393.066V15.2087ZM401.146 10.3915V3.86661H391.512V10.3915H401.146ZM396.329 8.68384H435.523V-0.950626H396.329V8.68384ZM430.706 3.86661V10.3915H440.34V3.86661H430.706ZM435.523 15.2087H438.83V5.57428H435.523V15.2087ZM434.013 10.3915V20.1789H443.647V10.3915H434.013ZM438.83 24.9961H442.093V15.3616H438.83V24.9961ZM437.275 20.1789V33.2734H446.91V20.1789H437.275ZM442.093 38.0906H445.355V28.4561H442.093V38.0906ZM440.538 33.2734V43.0607H450.172V33.2734H440.538ZM445.355 47.878H448.617V38.2435H445.355V47.878ZM443.8 43.0607V52.8928H453.435V43.0607H443.8ZM448.617 57.71H451.88V48.0756H448.617V57.71ZM447.063 52.8928V62.6801H456.697V52.8928H447.063ZM451.88 67.4974H455.142V57.8629H451.88V67.4974ZM450.325 62.6801V75.7747H459.96V62.6801H450.325ZM455.142 80.5919H458.405V70.9574H455.142V80.5919ZM453.588 75.7747V85.562H463.222V75.7747H453.588ZM458.405 90.3792H461.712V80.7448H458.405V90.3792ZM456.895 85.562V92.0869H466.529V85.562H456.895ZM461.712 87.2697H428.998V96.9041H461.712V87.2697ZM433.815 92.0869V79.0371H424.181V92.0869H433.815ZM428.998 74.2199H402.854V83.8543H428.998V74.2199ZM398.036 79.0371V92.0869H407.671V79.0371H398.036ZM402.854 87.2697H370.185V96.9041H402.854V87.2697ZM500.951 95.3494H496.134V100.167H500.951V95.3494ZM500.951 92.0869H505.768V87.2697H500.951V92.0869ZM491.163 92.0869H486.346V96.9041H491.163V92.0869ZM491.163 88.8245H495.981V84.0072H491.163V88.8245ZM484.594 88.8245H479.777V93.6417H484.594V88.8245ZM484.594 85.562H489.411V80.7448H484.594V85.562ZM481.331 85.562H476.514V90.3792H481.331V85.562ZM481.331 82.2996H486.149V77.4823H481.331V82.2996ZM478.069 82.2996H473.252V87.1168H478.069V82.2996ZM478.069 79.0371H482.886V74.2199H478.069V79.0371ZM474.806 79.0371H469.989V83.8543H474.806V79.0371ZM474.806 75.7747H479.624V70.9574H474.806V75.7747ZM471.544 75.7747H466.727V80.5919H471.544V75.7747ZM471.544 69.205H476.361V64.3878H471.544V69.205ZM468.282 69.205H463.464V74.0223H468.282V69.205ZM468.282 59.4177H473.099V54.6005H468.282V59.4177ZM465.019 59.4177H460.202V64.2349H465.019V59.4177ZM465.019 39.7983V34.981H460.202V39.7983H465.019ZM468.282 39.7983V44.6155H473.099V39.7983H468.282ZM468.282 30.0109V25.1937H463.464V30.0109H468.282ZM471.544 30.0109V34.8282H476.361V30.0109H471.544ZM471.544 23.4413V18.6241H466.727V23.4413H471.544ZM474.806 23.4413V28.2586H479.624V23.4413H474.806ZM474.806 16.9164V12.0992H469.989V16.9164H474.806ZM478.069 16.9164V21.7337H482.886V16.9164H478.069ZM478.069 13.654V8.83673H473.252V13.654H478.069ZM481.331 13.654V18.4712H486.149V13.654H481.331ZM481.331 10.3915V5.57428H476.514V10.3915H481.331ZM484.594 10.3915V15.2087H489.411V10.3915H484.594ZM484.594 7.12906V2.31183H479.777V7.12906H484.594ZM491.163 7.12906V11.9463H495.981V7.12906H491.163ZM491.163 3.86661V-0.950626H486.346V3.86661H491.163ZM504.213 3.86661V8.68384H509.03V3.86661H504.213ZM504.213 0.559464V-4.25777H499.396V0.559464H504.213ZM527.095 0.559464H531.912V-4.25777H527.095V0.559464ZM527.095 3.86661H522.278V8.68384H527.095V3.86661ZM546.714 3.86661H551.532V-0.950626H546.714V3.86661ZM546.714 20.1789V24.9961H551.532V20.1789H546.714ZM543.452 20.1789V15.3616H538.635V20.1789H543.452ZM543.452 33.2734V38.0906H548.269V33.2734H543.452ZM533.665 33.2734H528.847V38.0906H533.665V33.2734ZM533.665 30.0109H538.482V25.1937H533.665V30.0109ZM514.045 30.0109V25.1937H509.228V30.0109H514.045ZM514.045 33.2734V38.0906H518.862V33.2734H514.045ZM507.476 33.2734V28.4561H502.658V33.2734H507.476ZM507.476 36.5358V41.3531H512.293V36.5358H507.476ZM504.213 36.5358V31.7186H499.396V36.5358H504.213ZM504.213 39.7983V44.6155H509.03V39.7983H504.213ZM500.951 39.7983V34.981H496.134V39.7983H500.951ZM500.951 46.3232V51.1404H505.768V46.3232H500.951ZM497.688 46.3232V41.506H492.871V46.3232H497.688ZM497.688 62.6801H492.871V67.4974H497.688V62.6801ZM500.951 62.6801H505.768V57.8629H500.951V62.6801ZM500.951 65.9426H496.134V70.7598H500.951V65.9426ZM517.308 65.9426V70.7598H522.125V65.9426H517.308ZM517.308 62.6801V57.8629H512.491V62.6801H517.308ZM523.833 62.6801V67.4974H528.65V62.6801H523.833ZM523.833 59.4177V54.6005H519.015V59.4177H523.833ZM527.095 59.4177V64.2349H531.912V59.4177H527.095ZM527.095 56.1552V51.338H522.278V56.1552H527.095ZM530.358 56.1552V60.9725H535.175V56.1552H530.358ZM530.358 52.8928V48.0756H525.54V52.8928H530.358ZM533.665 52.8928V57.71H538.482V52.8928H533.665ZM533.665 49.6303V44.8131H528.847V49.6303H533.665ZM536.927 49.6303H541.744V44.8131H536.927V49.6303ZM536.927 62.6801H532.11V67.4974H536.927V62.6801ZM540.19 62.6801H545.007V57.8629H540.19V62.6801ZM540.19 75.7747H535.372V80.5919H540.19V75.7747ZM543.452 75.7747H548.269V70.9574H543.452V75.7747ZM543.452 88.8245V93.6417H548.269V88.8245H543.452ZM540.19 88.8245V84.0072H535.372V88.8245H540.19ZM540.19 92.0869V96.9041H545.007V92.0869H540.19ZM527.095 92.0869V87.2697H522.278V92.0869H527.095ZM527.095 95.3494V100.167H531.912V95.3494H527.095ZM505.768 95.3494V92.0869H496.134V95.3494H505.768ZM500.951 87.2697H491.163V96.9041H500.951V87.2697ZM495.981 92.0869V88.8245H486.346V92.0869H495.981ZM491.163 84.0072H484.594V93.6417H491.163V84.0072ZM489.411 88.8245V85.562H479.777V88.8245H489.411ZM484.594 80.7448H481.331V90.3792H484.594V80.7448ZM486.149 85.562V82.2996H476.514V85.562H486.149ZM481.331 77.4823H478.069V87.1168H481.331V77.4823ZM482.886 82.2996V79.0371H473.252V82.2996H482.886ZM478.069 74.2199H474.806V83.8543H478.069V74.2199ZM479.624 79.0371V75.7747H469.989V79.0371H479.624ZM474.806 70.9574H471.544V80.5919H474.806V70.9574ZM476.361 75.7747V69.205H466.727V75.7747H476.361ZM471.544 64.3878H468.282V74.0223H471.544V64.3878ZM473.099 69.205V59.4177H463.464V69.205H473.099ZM468.282 54.6005H465.019V64.2349H468.282V54.6005ZM469.836 59.4177V39.7983H460.202V59.4177H469.836ZM465.019 44.6155H468.282V34.981H465.019V44.6155ZM473.099 39.7983V30.0109H463.464V39.7983H473.099ZM468.282 34.8282H471.544V25.1937H468.282V34.8282ZM476.361 30.0109V23.4413H466.727V30.0109H476.361ZM471.544 28.2586H474.806V18.6241H471.544V28.2586ZM479.624 23.4413V16.9164H469.989V23.4413H479.624ZM474.806 21.7337H478.069V12.0992H474.806V21.7337ZM482.886 16.9164V13.654H473.252V16.9164H482.886ZM478.069 18.4712H481.331V8.83673H478.069V18.4712ZM486.149 13.654V10.3915H476.514V13.654H486.149ZM481.331 15.2087H484.594V5.57428H481.331V15.2087ZM489.411 10.3915V7.12906H479.777V10.3915H489.411ZM484.594 11.9463H491.163V2.31183H484.594V11.9463ZM495.981 7.12906V3.86661H486.346V7.12906H495.981ZM491.163 8.68384H504.213V-0.950626H491.163V8.68384ZM509.03 3.86661V0.559464H499.396V3.86661H509.03ZM504.213 5.3767H527.095V-4.25777H504.213V5.3767ZM522.278 0.559464V3.86661H531.912V0.559464H522.278ZM527.095 8.68384H546.714V-0.950626H527.095V8.68384ZM541.897 3.86661V20.1789H551.532V3.86661H541.897ZM546.714 15.3616H543.452V24.9961H546.714V15.3616ZM538.635 20.1789V33.2734H548.269V20.1789H538.635ZM543.452 28.4561H533.665V38.0906H543.452V28.4561ZM538.482 33.2734V30.0109H528.847V33.2734H538.482ZM533.665 25.1937H514.045V34.8282H533.665V25.1937ZM509.228 30.0109V33.2734H518.862V30.0109H509.228ZM514.045 28.4561H507.476V38.0906H514.045V28.4561ZM502.658 33.2734V36.5358H512.293V33.2734H502.658ZM507.476 31.7186H504.213V41.3531H507.476V31.7186ZM499.396 36.5358V39.7983H509.03V36.5358H499.396ZM504.213 34.981H500.951V44.6155H504.213V34.981ZM496.134 39.7983V46.3232H505.768V39.7983H496.134ZM500.951 41.506H497.688V51.1404H500.951V41.506ZM492.871 46.3232V62.6801H502.506V46.3232H492.871ZM497.688 67.4974H500.951V57.8629H497.688V67.4974ZM496.134 62.6801V65.9426H505.768V62.6801H496.134ZM500.951 70.7598H517.308V61.1254H500.951V70.7598ZM522.125 65.9426V62.6801H512.491V65.9426H522.125ZM517.308 67.4974H523.833V57.8629H517.308V67.4974ZM528.65 62.6801V59.4177H519.015V62.6801H528.65ZM523.833 64.2349H527.095V54.6005H523.833V64.2349ZM531.912 59.4177V56.1552H522.278V59.4177H531.912ZM527.095 60.9725H530.358V51.338H527.095V60.9725ZM535.175 56.1552V52.8928H525.54V56.1552H535.175ZM530.358 57.71H533.665V48.0756H530.358V57.71ZM538.482 52.8928V49.6303H528.847V52.8928H538.482ZM533.665 54.4476H536.927V44.8131H533.665V54.4476ZM532.11 49.6303V62.6801H541.744V49.6303H532.11ZM536.927 67.4974H540.19V57.8629H536.927V67.4974ZM535.372 62.6801V75.7747H545.007V62.6801H535.372ZM540.19 80.5919H543.452V70.9574H540.19V80.5919ZM538.635 75.7747V88.8245H548.269V75.7747H538.635ZM543.452 84.0072H540.19V93.6417H543.452V84.0072ZM535.372 88.8245V92.0869H545.007V88.8245H535.372ZM540.19 87.2697H527.095V96.9041H540.19V87.2697ZM522.278 92.0869V95.3494H531.912V92.0869H522.278ZM527.095 90.5321H500.951V100.167H527.095V90.5321ZM576.166 92.0869H571.349V96.9041H576.166V92.0869ZM576.166 30.0109H580.983V25.1937H576.166V30.0109ZM550.022 30.0109H545.204V34.8282H550.022V30.0109ZM550.022 3.86661V-0.950626H545.204V3.86661H550.022ZM638.242 3.86661H643.059V-0.950626H638.242V3.86661ZM638.242 30.0109V34.8282H643.059V30.0109H638.242ZM612.098 30.0109V25.1937H607.28V30.0109H612.098ZM612.098 92.0869V96.9041H616.915V92.0869H612.098ZM580.983 92.0869V30.0109H571.349V92.0869H580.983ZM576.166 25.1937H550.022V34.8282H576.166V25.1937ZM554.839 30.0109V3.86661H545.204V30.0109H554.839ZM550.022 8.68384H638.242V-0.950626H550.022V8.68384ZM633.425 3.86661V30.0109H643.059V3.86661H633.425ZM638.242 25.1937H612.098V34.8282H638.242V25.1937ZM607.28 30.0109V92.0869H616.915V30.0109H607.28ZM612.098 87.2697H576.166V96.9041H612.098V87.2697ZM719.937 92.0869H715.12V96.9041H719.937V92.0869ZM719.937 88.8245H724.755V84.0072H719.937V88.8245ZM716.675 88.8245H711.858V93.6417H716.675V88.8245ZM716.675 85.562H721.492V80.7448H716.675V85.562ZM713.412 85.562H708.595V90.3792H713.412V85.562ZM713.412 82.2996H718.23V77.4823H713.412V82.2996ZM710.15 82.2996H705.333V87.1168H710.15V82.2996ZM710.15 79.0371H714.967V74.2199H710.15V79.0371ZM706.888 79.0371H702.07V83.8543H706.888V79.0371ZM706.888 75.7747H711.705V70.9574H706.888V75.7747ZM703.625 75.7747H698.808V80.5919H703.625V75.7747ZM703.625 69.205H708.442V64.3878H703.625V69.205ZM700.363 69.205H695.545V74.0223H700.363V69.205ZM700.363 3.86661V-0.950626H695.545V3.86661H700.363ZM736.294 3.86661H741.112V-0.950626H736.294V3.86661ZM736.294 72.5122H731.477V77.3294H736.294V72.5122ZM742.819 72.5122V77.3294H747.636V72.5122H742.819ZM742.819 69.205V64.3878H738.002V69.205H742.819ZM746.126 69.205V74.0223H750.944V69.205H746.126ZM746.126 65.9426V61.1254H741.309V65.9426H746.126ZM749.389 65.9426V70.7598H754.206V65.9426H749.389ZM749.389 62.6801V57.8629H744.572V62.6801H749.389ZM752.651 62.6801V67.4974H757.468V62.6801H752.651ZM752.651 56.1552V51.338H747.834V56.1552H752.651ZM755.914 56.1552V60.9725H760.731V56.1552H755.914ZM755.914 3.86661V-0.950626H751.096V3.86661H755.914ZM788.583 3.86661H793.4V-0.950626H788.583V3.86661ZM788.583 69.205V74.0223H793.4V69.205H788.583ZM785.32 69.205V64.3878H780.503V69.205H785.32ZM785.32 75.7747V80.5919H790.138V75.7747H785.32ZM782.058 75.7747V70.9574H777.241V75.7747H782.058ZM782.058 79.0371V83.8543H786.875V79.0371H782.058ZM778.796 79.0371V74.2199H773.978V79.0371H778.796ZM778.796 82.2996V87.1168H783.613V82.2996H778.796ZM775.533 82.2996V77.4823H770.716V82.2996H775.533ZM775.533 85.562V90.3792H780.35V85.562H775.533ZM772.271 85.562V80.7448H767.453V85.562H772.271ZM772.271 88.8245V93.6417H777.088V88.8245H772.271ZM769.008 88.8245V84.0072H764.191V88.8245H769.008ZM769.008 92.0869V96.9041H773.825V92.0869H769.008ZM724.755 92.0869V88.8245H715.12V92.0869H724.755ZM719.937 84.0072H716.675V93.6417H719.937V84.0072ZM721.492 88.8245V85.562H711.858V88.8245H721.492ZM716.675 80.7448H713.412V90.3792H716.675V80.7448ZM718.23 85.562V82.2996H708.595V85.562H718.23ZM713.412 77.4823H710.15V87.1168H713.412V77.4823ZM714.967 82.2996V79.0371H705.333V82.2996H714.967ZM710.15 74.2199H706.888V83.8543H710.15V74.2199ZM711.705 79.0371V75.7747H702.07V79.0371H711.705ZM706.888 70.9574H703.625V80.5919H706.888V70.9574ZM708.442 75.7747V69.205H698.808V75.7747H708.442ZM703.625 64.3878H700.363V74.0223H703.625V64.3878ZM705.18 69.205V3.86661H695.545V69.205H705.18ZM700.363 8.68384H736.294V-0.950626H700.363V8.68384ZM731.477 3.86661V72.5122H741.112V3.86661H731.477ZM736.294 77.3294H742.819V67.695H736.294V77.3294ZM747.636 72.5122V69.205H738.002V72.5122H747.636ZM742.819 74.0223H746.126V64.3878H742.819V74.0223ZM750.944 69.205V65.9426H741.309V69.205H750.944ZM746.126 70.7598H749.389V61.1254H746.126V70.7598ZM754.206 65.9426V62.6801H744.572V65.9426H754.206ZM749.389 67.4974H752.651V57.8629H749.389V67.4974ZM757.468 62.6801V56.1552H747.834V62.6801H757.468ZM752.651 60.9725H755.914V51.338H752.651V60.9725ZM760.731 56.1552V3.86661H751.096V56.1552H760.731ZM755.914 8.68384H788.583V-0.950626H755.914V8.68384ZM783.766 3.86661V69.205H793.4V3.86661H783.766ZM788.583 64.3878H785.32V74.0223H788.583V64.3878ZM780.503 69.205V75.7747H790.138V69.205H780.503ZM785.32 70.9574H782.058V80.5919H785.32V70.9574ZM777.241 75.7747V79.0371H786.875V75.7747H777.241ZM782.058 74.2199H778.796V83.8543H782.058V74.2199ZM773.978 79.0371V82.2996H783.613V79.0371H773.978ZM778.796 77.4823H775.533V87.1168H778.796V77.4823ZM770.716 82.2996V85.562H780.35V82.2996H770.716ZM775.533 80.7448H772.271V90.3792H775.533V80.7448ZM767.453 85.562V88.8245H777.088V85.562H767.453ZM772.271 84.0072H769.008V93.6417H772.271V84.0072ZM764.191 88.8245V92.0869H773.825V88.8245H764.191ZM769.008 87.2697H719.937V96.9041H769.008V87.2697ZM804.94 95.3494H800.123V100.167H804.94V95.3494ZM804.94 92.0869H809.757V87.2697H804.94V92.0869ZM795.153 92.0869H790.335V96.9041H795.153V92.0869ZM795.153 88.8245H799.97V84.0072H795.153V88.8245ZM791.89 88.8245H787.073V93.6417H791.89V88.8245ZM791.89 79.0371V74.2199H787.073V79.0371H791.89ZM795.153 79.0371V83.8543H799.97V79.0371H795.153ZM795.153 69.205V64.3878H790.335V69.205H795.153ZM831.084 69.205V74.0223H835.901V69.205H831.084ZM831.084 62.6801H835.901V57.8629H831.084V62.6801ZM808.202 62.6801H803.385V67.4974H808.202V62.6801ZM808.202 59.4177H813.02V54.6005H808.202V59.4177ZM801.677 59.4177H796.86V64.2349H801.677V59.4177ZM801.677 56.1552H806.495V51.338H801.677V56.1552ZM798.415 56.1552H793.598V60.9725H798.415V56.1552ZM798.415 52.8928H803.232V48.0756H798.415V52.8928ZM795.153 52.8928H790.335V57.71H795.153V52.8928ZM795.153 49.6303H799.97V44.8131H795.153V49.6303ZM791.89 49.6303H787.073V54.4476H791.89V49.6303ZM791.89 43.0607H796.707V38.2435H791.89V43.0607ZM788.628 43.0607H783.81V47.878H788.628V43.0607ZM788.628 26.7485V21.9312H783.81V26.7485H788.628ZM791.89 26.7485V31.5657H796.707V26.7485H791.89ZM791.89 20.1789V15.3616H787.073V20.1789H791.89ZM795.153 20.1789V24.9961H799.97V20.1789H795.153ZM795.153 16.9164V12.0992H790.335V16.9164H795.153ZM798.415 16.9164V21.7337H803.232V16.9164H798.415ZM798.415 13.654V8.83673H793.598V13.654H798.415ZM801.677 13.654V18.4712H806.495V13.654H801.677ZM801.677 10.3915V5.57428H796.86V10.3915H801.677ZM804.94 10.3915V15.2087H809.757V10.3915H804.94ZM804.94 7.12906V2.31183H800.123V7.12906H804.94ZM814.772 7.12906V11.9463H819.589V7.12906H814.772ZM814.772 3.86661V-0.950626H809.955V3.86661H814.772ZM850.704 3.86661H855.521V-0.950626H850.704V3.86661ZM850.704 7.12906H845.886V11.9463H850.704V7.12906ZM860.536 7.12906H865.353V2.31183H860.536V7.12906ZM860.536 10.3915H855.718V15.2087H860.536V10.3915ZM863.798 10.3915H868.615V5.57428H863.798V10.3915ZM863.798 20.1789V24.9961H868.615V20.1789H863.798ZM860.536 20.1789V15.3616H855.718V20.1789H860.536ZM860.536 26.7485V31.5657H865.353V26.7485H860.536ZM857.229 26.7485V21.9312H852.411V26.7485H857.229ZM857.229 30.0109V34.8282H862.046V30.0109H857.229ZM827.822 30.0109V25.1937H823.005V30.0109H827.822ZM827.822 39.7983H823.005V44.6155H827.822V39.7983ZM847.441 39.7983H852.258V34.981H847.441V39.7983ZM847.441 43.0607H842.624V47.878H847.441V43.0607ZM857.229 43.0607H862.046V38.2435H857.229V43.0607ZM857.229 46.3232H852.411V51.1404H857.229V46.3232ZM860.536 46.3232H865.353V41.506H860.536V46.3232ZM860.536 49.6303H855.718V54.4476H860.536V49.6303ZM863.798 49.6303H868.615V44.8131H863.798V49.6303ZM863.798 52.8928H858.981V57.71H863.798V52.8928ZM867.061 52.8928H871.878V48.0756H867.061V52.8928ZM867.061 59.4177H862.243V64.2349H867.061V59.4177ZM870.323 59.4177H875.14V54.6005H870.323V59.4177ZM870.323 75.7747V80.5919H875.14V75.7747H870.323ZM867.061 75.7747V70.9574H862.243V75.7747H867.061ZM867.061 82.2996V87.1168H871.878V82.2996H867.061ZM863.798 82.2996V77.4823H858.981V82.2996H863.798ZM863.798 85.562V90.3792H868.615V85.562H863.798ZM860.536 85.562V80.7448H855.718V85.562H860.536ZM860.536 88.8245V93.6417H865.353V88.8245H860.536ZM857.229 88.8245V84.0072H852.411V88.8245H857.229ZM857.229 92.0869V96.9041H862.046V92.0869H857.229ZM847.441 92.0869V87.2697H842.624V92.0869H847.441ZM847.441 95.3494V100.167H852.258V95.3494H847.441ZM809.757 95.3494V92.0869H800.123V95.3494H809.757ZM804.94 87.2697H795.153V96.9041H804.94V87.2697ZM799.97 92.0869V88.8245H790.335V92.0869H799.97ZM795.153 84.0072H791.89V93.6417H795.153V84.0072ZM796.707 88.8245V79.0371H787.073V88.8245H796.707ZM791.89 83.8543H795.153V74.2199H791.89V83.8543ZM799.97 79.0371V69.205H790.335V79.0371H799.97ZM795.153 74.0223H831.084V64.3878H795.153V74.0223ZM835.901 69.205V62.6801H826.267V69.205H835.901ZM831.084 57.8629H808.202V67.4974H831.084V57.8629ZM813.02 62.6801V59.4177H803.385V62.6801H813.02ZM808.202 54.6005H801.677V64.2349H808.202V54.6005ZM806.495 59.4177V56.1552H796.86V59.4177H806.495ZM801.677 51.338H798.415V60.9725H801.677V51.338ZM803.232 56.1552V52.8928H793.598V56.1552H803.232ZM798.415 48.0756H795.153V57.71H798.415V48.0756ZM799.97 52.8928V49.6303H790.335V52.8928H799.97ZM795.153 44.8131H791.89V54.4476H795.153V44.8131ZM796.707 49.6303V43.0607H787.073V49.6303H796.707ZM791.89 38.2435H788.628V47.878H791.89V38.2435ZM793.445 43.0607V26.7485H783.81V43.0607H793.445ZM788.628 31.5657H791.89V21.9312H788.628V31.5657ZM796.707 26.7485V20.1789H787.073V26.7485H796.707ZM791.89 24.9961H795.153V15.3616H791.89V24.9961ZM799.97 20.1789V16.9164H790.335V20.1789H799.97ZM795.153 21.7337H798.415V12.0992H795.153V21.7337ZM803.232 16.9164V13.654H793.598V16.9164H803.232ZM798.415 18.4712H801.677V8.83673H798.415V18.4712ZM806.495 13.654V10.3915H796.86V13.654H806.495ZM801.677 15.2087H804.94V5.57428H801.677V15.2087ZM809.757 10.3915V7.12906H800.123V10.3915H809.757ZM804.94 11.9463H814.772V2.31183H804.94V11.9463ZM819.589 7.12906V3.86661H809.955V7.12906H819.589ZM814.772 8.68384H850.704V-0.950626H814.772V8.68384ZM845.886 3.86661V7.12906H855.521V3.86661H845.886ZM850.704 11.9463H860.536V2.31183H850.704V11.9463ZM855.718 7.12906V10.3915H865.353V7.12906H855.718ZM860.536 15.2087H863.798V5.57428H860.536V15.2087ZM858.981 10.3915V20.1789H868.615V10.3915H858.981ZM863.798 15.3616H860.536V24.9961H863.798V15.3616ZM855.718 20.1789V26.7485H865.353V20.1789H855.718ZM860.536 21.9312H857.229V31.5657H860.536V21.9312ZM852.411 26.7485V30.0109H862.046V26.7485H852.411ZM857.229 25.1937H827.822V34.8282H857.229V25.1937ZM823.005 30.0109V39.7983H832.639V30.0109H823.005ZM827.822 44.6155H847.441V34.981H827.822V44.6155ZM842.624 39.7983V43.0607H852.258V39.7983H842.624ZM847.441 47.878H857.229V38.2435H847.441V47.878ZM852.411 43.0607V46.3232H862.046V43.0607H852.411ZM857.229 51.1404H860.536V41.506H857.229V51.1404ZM855.718 46.3232V49.6303H865.353V46.3232H855.718ZM860.536 54.4476H863.798V44.8131H860.536V54.4476ZM858.981 49.6303V52.8928H868.615V49.6303H858.981ZM863.798 57.71H867.061V48.0756H863.798V57.71ZM862.243 52.8928V59.4177H871.878V52.8928H862.243ZM867.061 64.2349H870.323V54.6005H867.061V64.2349ZM865.506 59.4177V75.7747H875.14V59.4177H865.506ZM870.323 70.9574H867.061V80.5919H870.323V70.9574ZM862.243 75.7747V82.2996H871.878V75.7747H862.243ZM867.061 77.4823H863.798V87.1168H867.061V77.4823ZM858.981 82.2996V85.562H868.615V82.2996H858.981ZM863.798 80.7448H860.536V90.3792H863.798V80.7448ZM855.718 85.562V88.8245H865.353V85.562H855.718ZM860.536 84.0072H857.229V93.6417H860.536V84.0072ZM852.411 88.8245V92.0869H862.046V88.8245H852.411ZM857.229 87.2697H847.441V96.9041H857.229V87.2697ZM842.624 92.0869V95.3494H852.258V92.0869H842.624ZM847.441 90.5321H804.94V100.167H847.441V90.5321Z" fill="url(#paint1_linear_457_354)" mask="url(#path-1-outside-1_457_354)"/>
<defs>
<linearGradient id="paint0_linear_457_354" x1="-113.201" y1="130.781" x2="66.2942" y2="-275.334" gradientUnits="userSpaceOnUse">
<stop offset="0.0528514" stop-color="#F0F3FF"/>
<stop offset="0.103169" stop-color="#F0F3FF"/>
<stop offset="1" stop-color="#1E59F5"/>
</linearGradient>
<linearGradient id="paint1_linear_457_354" x1="437.357" y1="-11.9131" x2="303.628" y2="315.401" gradientUnits="userSpaceOnUse">
<stop/>
<stop offset="1" stop-color="#666666"/>
</linearGradient>
</defs>
</svg>
